<svg width="15" height="17" viewBox="0 0 15 17" fill="none" xmlns="http://www.w3.org/2000/svg">
<path id="Vector" d="M13.5234 11.3011C13.4282 11.3266 13.3289 11.3332 13.2312 11.3204C13.1335 11.3075 13.0393 11.2755 12.9539 11.2263C12.8686 11.177 12.7937 11.1114 12.7338 11.0331C12.6738 10.9549 12.6298 10.8657 12.6044 10.7705L10.6029 3.29834L3.25806 16.02C3.1586 16.1922 2.99479 16.3179 2.80265 16.3694C2.61052 16.4209 2.4058 16.394 2.23354 16.2945C2.06127 16.195 1.93558 16.0312 1.88409 15.8391C1.83261 15.647 1.85956 15.4422 1.95902 15.27L9.30386 2.54834L1.83209 4.55108C1.63985 4.60259 1.43502 4.57562 1.26266 4.47611C1.0903 4.3766 0.96453 4.2127 0.913019 4.02045C0.861508 3.82821 0.888475 3.62338 0.987986 3.45102C1.0875 3.27867 1.2514 3.1529 1.44364 3.10138L10.6643 0.630713C10.7595 0.605151 10.8588 0.598601 10.9565 0.611439C11.0542 0.624277 11.1485 0.65625 11.2338 0.705531C11.3192 0.754812 11.394 0.820433 11.454 0.898644C11.514 0.976855 11.5579 1.06612 11.5834 1.16134L14.0541 10.382C14.0796 10.4772 14.0862 10.5765 14.0733 10.6742C14.0605 10.7719 14.0285 10.8662 13.9792 10.9515C13.93 11.0369 13.8643 11.1117 13.7861 11.1717C13.7079 11.2316 13.6186 11.2756 13.5234 11.3011Z" fill="#404040"/>
</svg>
