<svg width="18" height="18" viewBox="0 0 18 18" fill="none" xmlns="http://www.w3.org/2000/svg">
<path id="Vector" d="M16.4543 14.9436V7.3626C16.7759 7.35103 17.0851 7.23568 17.3356 7.03379C17.5862 6.83191 17.7646 6.55434 17.8443 6.2426C17.9333 5.92464 17.9126 5.586 17.7856 5.28124C17.6586 4.97648 17.4327 4.72334 17.1443 4.5626L9.69434 0.262599C9.46687 0.134693 9.2103 0.0675049 8.94934 0.0675049C8.68837 0.0675049 8.4318 0.134693 8.20434 0.262599L0.754336 4.5626C0.465946 4.72334 0.240062 4.97648 0.113077 5.28124C-0.0139073 5.586 -0.0345988 5.92464 0.0543363 6.2426C0.136754 6.56412 0.324166 6.84891 0.586844 7.05181C0.849522 7.2547 1.17243 7.36408 1.50434 7.3626H1.63434V14.9326H1.51434C1.11651 14.9326 0.734981 15.0906 0.453676 15.3719C0.172372 15.6532 0.0143363 16.0348 0.0143363 16.4326C0.0143363 16.8304 0.172372 17.212 0.453676 17.4933C0.734981 17.7746 1.11651 17.9326 1.51434 17.9326H16.3843C16.7601 17.9104 17.1138 17.7477 17.3753 17.4768C17.6367 17.2059 17.7867 16.8467 17.7955 16.4703C17.8043 16.094 17.6713 15.7281 17.4228 15.4453C17.1744 15.1624 16.8287 14.9834 16.4543 14.9436ZM1.50434 6.3626C1.39412 6.36119 1.28739 6.32376 1.20044 6.25603C1.11348 6.18829 1.05108 6.09396 1.02275 5.98744C0.994416 5.88091 1.00172 5.76805 1.04353 5.66606C1.08535 5.56408 1.15938 5.47857 1.25434 5.4226L8.70434 1.1336C8.77811 1.08853 8.86289 1.06469 8.94934 1.06469C9.03579 1.06469 9.12056 1.08853 9.19434 1.1336L16.6493 5.4226C16.7483 5.47593 16.8264 5.56105 16.8711 5.66424C16.9157 5.76742 16.9243 5.88263 16.8954 5.99127C16.8665 6.09992 16.8018 6.19566 16.7118 6.26303C16.6218 6.3304 16.5117 6.36548 16.3993 6.3626H1.50434ZM15.4543 7.3626V14.9326H11.8493V7.3626H15.4543ZM10.8443 7.3626V14.9326H7.23434V7.3626H10.8443ZM6.23434 7.3626V14.9326H2.63434V7.3626H6.23434ZM16.3843 16.9326H1.51434C1.38173 16.9326 1.25455 16.8799 1.16078 16.7862C1.06701 16.6924 1.01434 16.5652 1.01434 16.4326C1.01434 16.3 1.06701 16.1728 1.16078 16.079C1.25455 15.9853 1.38173 15.9326 1.51434 15.9326H16.3843C16.5169 15.9326 16.6441 15.9853 16.7379 16.079C16.8317 16.1728 16.8843 16.3 16.8843 16.4326C16.8843 16.5652 16.8317 16.6924 16.7379 16.7862C16.6441 16.8799 16.5169 16.9326 16.3843 16.9326Z" fill="#404040"/>
</svg>
