<svg width="22" height="18" viewBox="0 0 22 18" fill="none" xmlns="http://www.w3.org/2000/svg">
<path id="Vector" d="M0.714355 6.71429H21.2858M5.28578 12.4286H6.42864M11.0001 12.4286H12.1429M4.14293 17H17.8572C18.7665 17 19.6386 16.6388 20.2816 15.9958C20.9246 15.3528 21.2858 14.4807 21.2858 13.5714V4.42857C21.2858 3.51926 20.9246 2.64719 20.2816 2.00421C19.6386 1.36122 18.7665 1 17.8572 1H4.14293C3.23361 1 2.36154 1.36122 1.71856 2.00421C1.07558 2.64719 0.714355 3.51926 0.714355 4.42857V13.5714C0.714355 14.4807 1.07558 15.3528 1.71856 15.9958C2.36154 16.6388 3.23361 17 4.14293 17Z" stroke="#404040" stroke-linecap="round" stroke-linejoin="round"/>
</svg>
