<svg width="19" height="20" viewBox="0 0 19 20" fill="none" xmlns="http://www.w3.org/2000/svg">
<path id="Vector" d="M17.375 5L16.3996 17.142C16.3592 17.6466 16.1052 18.1188 15.6888 18.4636C15.2723 18.8083 14.7243 19 14.1553 19H4.84475C4.27566 19 3.7277 18.8083 3.31125 18.4636C2.89479 18.1188 2.64078 17.6466 2.60038 17.142L1.625 5M7.25 9V15M11.75 9V15M12.875 5V2C12.875 1.73478 12.7565 1.48043 12.5455 1.29289C12.3345 1.10536 12.0484 1 11.75 1H7.25C6.95163 1 6.66548 1.10536 6.45451 1.29289C6.24353 1.48043 6.125 1.73478 6.125 2V5M0.5 5H18.5" stroke="#FF0000" stroke-linecap="round" stroke-linejoin="round"/>
</svg>
