<svg width="24" height="25" viewBox="0 0 24 25" fill="none" xmlns="http://www.w3.org/2000/svg">
<g id="solar:delivery-bold-duotone">
<path id="Vector" d="M2.27694 5.74703C2.30329 5.65205 2.3481 5.5632 2.40881 5.48555C2.46952 5.40791 2.54493 5.34299 2.63075 5.29451C2.71656 5.24603 2.81109 5.21494 2.90893 5.20302C3.00677 5.19109 3.106 5.19857 3.20094 5.22503L4.90394 5.69703C5.35528 5.8196 5.76717 6.05703 6.09945 6.38615C6.43173 6.71528 6.67307 7.12488 6.79994 7.57503L8.95094 15.361L9.10894 15.908C9.7467 16.1431 10.2841 16.5905 10.6309 17.175L10.9409 17.079L19.8109 14.774C19.9063 14.7492 20.0056 14.7434 20.1032 14.757C20.2007 14.7705 20.2947 14.8032 20.3797 14.853C20.4646 14.9029 20.5389 14.969 20.5984 15.0476C20.6578 15.1262 20.7011 15.2157 20.7259 15.311C20.7508 15.4064 20.7566 15.5057 20.743 15.6032C20.7295 15.7008 20.6968 15.7948 20.6469 15.8797C20.5971 15.9647 20.531 16.039 20.4524 16.0984C20.3738 16.1579 20.2843 16.2012 20.1889 16.226L11.3519 18.522L11.0219 18.624C11.0159 19.894 10.1389 21.056 8.81194 21.4C7.22194 21.814 5.58694 20.898 5.16094 19.356C4.73494 17.813 5.67894 16.227 7.26894 15.814C7.34729 15.7938 7.42634 15.7765 7.50594 15.762L5.35394 7.97403C5.29601 7.77394 5.18729 7.59225 5.03834 7.44663C4.88939 7.30101 4.70529 7.19642 4.50394 7.14303L2.79994 6.67003C2.70499 6.64378 2.61613 6.59908 2.53845 6.53849C2.46078 6.47789 2.3958 6.40259 2.34723 6.31687C2.29866 6.23116 2.26746 6.13672 2.2554 6.03894C2.24334 5.94117 2.25066 5.84197 2.27694 5.74703Z" fill="black"/>
<path id="Vector_2" opacity="0.5" d="M9.56397 9.23L10.079 11.093C10.564 12.848 10.806 13.726 11.519 14.125C12.232 14.525 13.137 14.289 14.947 13.819L16.867 13.319C18.677 12.849 19.582 12.614 19.994 11.923C20.406 11.231 20.164 10.353 19.678 8.598L19.164 6.736C18.679 4.98 18.436 4.102 17.724 3.703C17.01 3.303 16.105 3.539 14.295 4.01L12.375 4.508C10.565 4.978 9.65997 5.214 9.24897 5.906C8.83697 6.597 9.07897 7.475 9.56397 9.23Z" fill="black"/>
</g>
</svg>
