<svg width="24" height="20" viewBox="0 0 24 20" fill="none" xmlns="http://www.w3.org/2000/svg">
<path id="Vector" d="M3.45579 2.54417C2.96623 3.03373 2.57789 3.61492 2.31294 4.25456C2.04799 4.89419 1.91162 5.57976 1.91162 6.2721C1.91162 6.96444 2.04799 7.65 2.31294 8.28964C2.57789 8.92928 2.96623 9.51047 3.45579 10L12.4558 19L21.4557 10C22.4445 9.01132 22.9999 7.67034 22.9999 6.2721C22.9999 4.87385 22.4445 3.53288 21.4557 2.54417C20.467 1.55546 19.1261 1.00001 17.7278 1.00001C16.3296 1.00001 14.9886 1.55546 13.9999 2.54417L12.4558 4.0883L10.9116 2.54417C10.4221 2.05461 9.8409 1.66627 9.20126 1.40132C8.56162 1.13637 7.87606 1 7.18372 1C6.49138 1 5.80581 1.13637 5.16618 1.40132C4.52654 1.66627 3.94535 2.05461 3.45579 2.54417Z" stroke="white" stroke-width="2" stroke-linecap="round" stroke-linejoin="round"/>
</svg>
