<svg width="20" height="18" viewBox="0 0 20 18" fill="none" xmlns="http://www.w3.org/2000/svg">
<path id="Vector" d="M1.9846 2.63603C1.56673 3.0539 1.23526 3.54998 1.00911 4.09594C0.782963 4.64191 0.666565 5.22708 0.666565 5.81803C0.666565 6.40899 0.782963 6.99415 1.00911 7.54012C1.23526 8.08609 1.56673 8.58217 1.9846 9.00003L9.6666 16.682L17.3486 9.00003C18.1925 8.15611 18.6666 7.01151 18.6666 5.81803C18.6666 4.62455 18.1925 3.47995 17.3486 2.63603C16.5047 1.79211 15.3601 1.318 14.1666 1.318C12.9731 1.318 11.8285 1.79211 10.9846 2.63603L9.6666 3.95403L8.3486 2.63603C7.93074 2.21816 7.43466 1.88669 6.88869 1.66054C6.34272 1.43439 5.75756 1.31799 5.1666 1.31799C4.57565 1.31799 3.99048 1.43439 3.44452 1.66054C2.89855 1.88669 2.40247 2.21816 1.9846 2.63603Z" stroke="black" stroke-linecap="round" stroke-linejoin="round"/>
</svg>
