<svg width="24" height="25" viewBox="0 0 24 25" fill="none" xmlns="http://www.w3.org/2000/svg">
<g id="twemoji:flag-nigeria" clip-path="url(#clip0_45_5540)">
<path id="Vector" d="M2.66667 3.83331C1.95942 3.83331 1.28115 4.11426 0.781049 4.61436C0.280952 5.11446 0 5.79274 0 6.49998L0 18.5C0 19.2072 0.280952 19.8855 0.781049 20.3856C1.28115 20.8857 1.95942 21.1666 2.66667 21.1666H8V3.83331H2.66667Z" fill="#009A49"/>
<path id="Vector_2" d="M8 3.83331H16V21.1666H8V3.83331Z" fill="#EEEEEE"/>
<path id="Vector_3" d="M21.3333 3.83331H16V21.1666H21.3333C22.0406 21.1666 22.7189 20.8857 23.219 20.3856C23.719 19.8855 24 19.2072 24 18.5V6.49998C24 5.79274 23.719 5.11446 23.219 4.61436C22.7189 4.11426 22.0406 3.83331 21.3333 3.83331Z" fill="#009A49"/>
</g>
<defs>
<clipPath id="clip0_45_5540">
<rect width="24" height="24" fill="white" transform="translate(0 0.5)"/>
</clipPath>
</defs>
</svg>
