<svg width="21" height="20" viewBox="0 0 21 20" fill="none" xmlns="http://www.w3.org/2000/svg">
<path id="Vector" d="M1.96268 5.51C2.79506 3.85353 4.0715 2.46106 5.64948 1.48806C7.22746 0.515073 9.04484 -0.000126487 10.8987 2.32934e-08C13.5937 2.32934e-08 15.8577 0.991 17.5887 2.605L14.7217 5.473C13.6847 4.482 12.3667 3.977 10.8987 3.977C8.29368 3.977 6.08868 5.737 5.30368 8.1C5.10368 8.7 4.98968 9.34 4.98968 10C4.98968 10.66 5.10368 11.3 5.30368 11.9C6.08968 14.264 8.29368 16.023 10.8987 16.023C12.2437 16.023 13.3887 15.668 14.2847 15.068C14.8041 14.726 15.2488 14.2822 15.5919 13.7635C15.935 13.2448 16.1693 12.6619 16.2807 12.05H10.8987V8.182H20.3167C20.4347 8.836 20.4987 9.518 20.4987 10.227C20.4987 13.273 19.4087 15.837 17.5167 17.577C15.8627 19.105 13.5987 20 10.8987 20C9.58532 20.0005 8.28472 19.7422 7.07123 19.2399C5.85773 18.7375 4.75513 18.0009 3.82644 17.0722C2.89775 16.1436 2.16118 15.0409 1.65882 13.8275C1.15646 12.614 0.898157 11.3134 0.898682 10C0.898682 8.386 1.28468 6.86 1.96268 5.51Z" fill="black"/>
</svg>
