<svg width="21" height="20" viewBox="0 0 21 20" fill="none" xmlns="http://www.w3.org/2000/svg">
<g id="hugeicons:shopping-cart-check-01">
<path id="Vector" d="M3.83325 19.5C3.2145 19.5 2.68463 19.2984 2.24363 18.8952C1.80263 18.492 1.5825 18.0079 1.58325 17.4429V8.18571C1.58325 7.86 1.66313 7.55143 1.82288 7.26C1.98263 6.96857 2.20275 6.72857 2.48325 6.54L9.23325 1.91143C9.4395 1.77429 9.65513 1.67143 9.88013 1.60286C10.1051 1.53429 10.3395 1.5 10.5833 1.5C10.827 1.5 11.0614 1.53429 11.2864 1.60286C11.5114 1.67143 11.727 1.77429 11.9333 1.91143L18.6833 6.54C18.9645 6.72857 19.185 6.96857 19.3447 7.26C19.5045 7.55143 19.584 7.86 19.5832 8.18571V17.4429C19.5832 18.0086 19.3627 18.493 18.9217 18.8962C18.4807 19.2994 17.9512 19.5007 17.3332 19.5H12.8333V12.3H8.33325V19.5H3.83325Z" fill="#DBDBDB"/>
</g>
</svg>
