<svg width="25" height="25" viewBox="0 0 25 25" fill="none" xmlns="http://www.w3.org/2000/svg">
<g id="svgexport-6 (5) 1" clip-path="url(#clip0_45_5722)">
<g id="Group">
<path id="Vector" d="M24.6644 7.06849C24.6081 5.79103 24.4015 4.91279 24.1056 4.15179C23.8003 3.34399 23.3306 2.62078 22.7153 2.01957C22.1141 1.409 21.3861 0.934565 20.5876 0.634051C19.8222 0.338124 18.9486 0.131544 17.6711 0.0752201C16.3841 0.0141267 15.9755 0 12.7113 0C9.44716 0 9.03859 0.0141267 7.75636 0.0704501C6.4789 0.126773 5.60066 0.333537 4.83984 0.629281C4.03186 0.934565 3.30865 1.40423 2.70744 2.01957C2.09687 2.62078 1.62261 3.34876 1.32192 4.1472C1.02599 4.91279 0.81941 5.78626 0.763086 7.06372C0.701993 8.35072 0.687866 8.7593 0.687866 12.0235C0.687866 15.2877 0.701993 15.6962 0.758316 16.9785C0.81464 18.2559 1.0214 19.1342 1.31733 19.8952C1.62261 20.703 2.09687 21.4262 2.70744 22.0274C3.30865 22.638 4.03663 23.1124 4.83507 23.4129C5.60066 23.7088 6.47413 23.9154 7.75177 23.9717C9.03382 24.0283 9.44258 24.0422 12.7068 24.0422C15.971 24.0422 16.3795 24.0283 17.6618 23.9717C18.9392 23.9154 19.8175 23.7088 20.5783 23.4129C22.194 22.7882 23.4715 21.5108 24.0962 19.8952C24.3919 19.1296 24.5987 18.2559 24.655 16.9785C24.7113 15.6962 24.7255 15.2877 24.7255 12.0235C24.7255 8.7593 24.7207 8.35072 24.6644 7.06849ZM22.4993 16.8845C22.4476 18.0587 22.2504 18.6928 22.086 19.1155C21.682 20.1629 20.8507 20.9941 19.8033 21.3981C19.3806 21.5625 18.742 21.7597 17.5724 21.8113C16.3043 21.8678 15.924 21.8817 12.7161 21.8817C9.50826 21.8817 9.12316 21.8678 7.85965 21.8113C6.68548 21.7597 6.05143 21.5625 5.62873 21.3981C5.10751 21.2055 4.63307 20.9002 4.24798 20.501C3.84876 20.1111 3.54348 19.6415 3.35084 19.1202C3.18646 18.6975 2.98924 18.0587 2.93768 16.8893C2.88118 15.6212 2.86723 15.2407 2.86723 12.0328C2.86723 8.82498 2.88118 8.43989 2.93768 7.17655C2.98924 6.00239 3.18646 5.36833 3.35084 4.94563C3.54348 4.42423 3.84876 3.94998 4.25275 3.5647C4.64243 3.16548 5.1121 2.8602 5.6335 2.66775C6.0562 2.50336 6.69502 2.30614 7.86442 2.2544C9.13252 2.19808 9.51303 2.18395 12.7207 2.18395C15.9333 2.18395 16.3137 2.19808 17.5772 2.2544C18.7513 2.30614 19.3854 2.50336 19.8081 2.66775C20.3293 2.8602 20.8038 3.16548 21.1888 3.5647C21.5881 3.95456 21.8933 4.42423 22.086 4.94563C22.2504 5.36833 22.4476 6.00697 22.4993 7.17655C22.5557 8.44466 22.5698 8.82498 22.5698 12.0328C22.5698 15.2407 22.5557 15.6164 22.4993 16.8845Z" fill="white"/>
<path id="Vector_2" d="M12.7113 5.84741C9.30167 5.84741 6.53522 8.61368 6.53522 12.0235C6.53522 15.4334 9.30167 18.1997 12.7113 18.1997C16.1212 18.1997 18.8875 15.4334 18.8875 12.0235C18.8875 8.61368 16.1212 5.84741 12.7113 5.84741ZM12.7113 16.0298C10.4993 16.0298 8.70504 14.2357 8.70504 12.0235C8.70504 9.81133 10.4993 8.01724 12.7113 8.01724C14.9235 8.01724 16.7176 9.81133 16.7176 12.0235C16.7176 14.2357 14.9235 16.0298 12.7113 16.0298Z" fill="white"/>
<path id="Vector_3" d="M20.5737 5.60322C20.5737 6.39945 19.9281 7.04506 19.1317 7.04506C18.3354 7.04506 17.6898 6.39945 17.6898 5.60322C17.6898 4.8068 18.3354 4.16138 19.1317 4.16138C19.9281 4.16138 20.5737 4.8068 20.5737 5.60322Z" fill="white"/>
</g>
</g>
<defs>
<clipPath id="clip0_45_5722">
<rect width="24" height="24.0423" fill="white" transform="translate(0.666748)"/>
</clipPath>
</defs>
</svg>
