<svg width="25" height="24" viewBox="0 0 25 24" fill="none" xmlns="http://www.w3.org/2000/svg">
<g id="svgexport-6 (7) 1">
<g id="Group">
<g id="_x31_0.Linkedin">
<path id="Vector" d="M21.9333 21.5999V14.5679C21.9333 11.1119 21.1893 8.47192 17.1573 8.47192C15.2133 8.47192 13.9173 9.52792 13.3893 10.5359H13.3413V8.78392H9.52527V21.5999H13.5093V15.2399C13.5093 13.5599 13.8213 11.9519 15.8853 11.9519C17.9253 11.9519 17.9493 13.8479 17.9493 15.3359V21.5759H21.9333V21.5999Z" fill="white"/>
<path id="Vector_2" d="M3.04529 8.78394H7.02929V21.5999H3.04529V8.78394Z" fill="white"/>
<path id="Vector_3" d="M5.03728 2.3999C3.76528 2.3999 2.73328 3.4319 2.73328 4.7039C2.73328 5.9759 3.76528 7.0319 5.03728 7.0319C6.30928 7.0319 7.34128 5.9759 7.34128 4.7039C7.34128 3.4319 6.30928 2.3999 5.03728 2.3999Z" fill="white"/>
</g>
</g>
</g>
</svg>
