<svg width="18" height="19" viewBox="0 0 18 19" fill="none" xmlns="http://www.w3.org/2000/svg">
<path id="Vector" d="M0 1.625C0 1.32663 0.118526 1.04048 0.329505 0.829505C0.540483 0.618526 0.826631 0.5 1.125 0.5H3.54712C3.81342 0.500123 4.07104 0.594703 4.27415 0.766917C4.47726 0.939131 4.6127 1.17781 4.65637 1.4405L5.48888 6.42987C5.52865 6.6675 5.4911 6.91161 5.38173 7.12628C5.27237 7.34096 5.09698 7.51486 4.88138 7.62238L3.13987 8.492C3.76437 10.0396 4.69444 11.4454 5.8745 12.6255C7.05456 13.8056 8.46039 14.7356 10.008 15.3601L10.8787 13.6186C10.9862 13.4032 11.1599 13.228 11.3744 13.1186C11.5888 13.0093 11.8327 12.9716 12.0701 13.0111L17.0595 13.8436C17.3222 13.8873 17.5609 14.0227 17.7331 14.2258C17.9053 14.429 17.9999 14.6866 18 14.9529V17.375C18 17.6734 17.8815 17.9595 17.6705 18.1705C17.4595 18.3815 17.1734 18.5 16.875 18.5H14.625C6.5475 18.5 0 11.9525 0 3.875V1.625Z" fill="white"/>
</svg>
