<svg width="23" height="21" viewBox="0 0 23 21" fill="none" xmlns="http://www.w3.org/2000/svg">
<path id="Vector" d="M7.5 0.75H21.5V10.25H19.5V2.75H17.5V8.368L14.5 6.868L11.5 8.368V2.75H9.5V8.25H7.5V0.75ZM13.5 2.75V5.132L14.5 4.632L15.5 5.132V2.75H13.5ZM8.435 12C8.27081 11.9996 8.10814 12.0315 7.95629 12.094C7.80444 12.1564 7.66638 12.2482 7.55 12.364L5.5 14.414V18.25H11.127L16.93 16.8L20.462 15.292C20.5823 15.227 20.6744 15.1198 20.7205 14.9911C20.7667 14.8624 20.7637 14.7212 20.7122 14.5945C20.6606 14.4678 20.5641 14.3647 20.4412 14.3048C20.3182 14.2449 20.1775 14.2325 20.046 14.27L20.026 14.275L13.614 15.75H10V13.75H13.125C13.3571 13.75 13.5796 13.6578 13.7437 13.4937C13.9078 13.3296 14 13.1071 14 12.875C14 12.6429 13.9078 12.4204 13.7437 12.2563C13.5796 12.0922 13.3571 12 13.125 12H8.435ZM15.987 13.152L19.539 12.335C19.9173 12.2355 20.3134 12.2241 20.6968 12.3015C21.0802 12.3789 21.4408 12.5432 21.7509 12.7817C22.0609 13.0202 22.3122 13.3266 22.4854 13.6773C22.6586 14.0281 22.7491 14.4138 22.75 14.805C22.7496 15.2798 22.6171 15.7452 22.3674 16.1491C22.1177 16.553 21.7606 16.8794 21.336 17.092L21.309 17.106L17.569 18.701L11.373 20.25H0V13H4.086L6.138 10.948C6.44034 10.6467 6.79907 10.4079 7.1937 10.2452C7.58834 10.0826 8.01116 9.99924 8.438 10H13.125C13.5259 9.99995 13.9225 10.0838 14.2891 10.246C14.6557 10.4083 14.9843 10.6455 15.2539 10.9423C15.5234 11.2392 15.7278 11.5891 15.8541 11.9696C15.9804 12.3502 16.0256 12.7529 15.987 13.152ZM3.5 15H2V18.25H3.5V15Z" fill="#404040"/>
</svg>
