<svg width="21" height="21" viewBox="0 0 21 21" fill="none" xmlns="http://www.w3.org/2000/svg">
<path id="Vector" fill-rule="evenodd" clip-rule="evenodd" d="M3 7.87107e-08C2.20435 7.87107e-08 1.44129 0.316071 0.87868 0.87868C0.316071 1.44129 0 2.20435 0 3V18C0 18.7956 0.316071 19.5587 0.87868 20.1213C1.44129 20.6839 2.20435 21 3 21H7.875C8.17337 21 8.45952 20.8815 8.6705 20.6705C8.88147 20.4595 9 20.1734 9 19.875C9 19.5766 8.88147 19.2905 8.6705 19.0795C8.45952 18.8685 8.17337 18.75 7.875 18.75H3C2.80109 18.75 2.61032 18.671 2.46967 18.5303C2.32902 18.3897 2.25 18.1989 2.25 18V3C2.25 2.80109 2.32902 2.61032 2.46967 2.46967C2.61032 2.32902 2.80109 2.25 3 2.25H12C12.1989 2.25 12.3897 2.32902 12.5303 2.46967C12.671 2.61032 12.75 2.80109 12.75 3V10.875C12.75 11.1734 12.8685 11.4595 13.0795 11.6705C13.2905 11.8815 13.5766 12 13.875 12C14.1734 12 14.4595 11.8815 14.6705 11.6705C14.8815 11.4595 15 11.1734 15 10.875V5.046L18.285 6.756C18.3289 6.77865 18.3679 6.80975 18.3998 6.84753C18.4317 6.88531 18.4557 6.92901 18.4707 6.97613C18.4856 7.02324 18.491 7.07284 18.4867 7.12208C18.4824 7.17131 18.4684 7.2192 18.4455 7.263L16.8375 10.356C16.7109 10.6194 16.6917 10.9217 16.784 11.1989C16.8763 11.4762 17.0729 11.7067 17.3321 11.8415C17.5913 11.9764 17.8929 12.0051 18.1729 11.9216C18.453 11.8381 18.6895 11.6489 18.8325 11.394L20.442 8.301C20.7632 7.68337 20.8259 6.96344 20.6164 6.29957C20.4068 5.6357 19.9421 5.08226 19.3245 4.761L14.9565 2.487C14.8356 1.7906 14.4728 1.15924 13.9319 0.70424C13.391 0.249244 12.7068 -0.000161758 12 7.87107e-08H3ZM18 18C18 18.7956 17.6839 19.5587 17.1213 20.1213C16.5587 20.6839 15.7956 21 15 21C14.2043 21 13.4413 20.6839 12.8787 20.1213C12.3161 19.5587 12 18.7956 12 18C12 17.2044 12.3161 16.4413 12.8787 15.8787C13.4413 15.3161 14.2043 15 15 15C15.7956 15 16.5587 15.3161 17.1213 15.8787C17.6839 16.4413 18 17.2044 18 18Z" fill="#404040"/>
</svg>
