<svg width="70" height="70" viewBox="0 0 70 70" fill="none" xmlns="http://www.w3.org/2000/svg">
<g id="pajamas:question" clip-path="url(#clip0_82_9568)">
<path id="Vector" fill-rule="evenodd" clip-rule="evenodd" d="M35 70C44.2826 70 53.185 66.3125 59.7487 59.7487C66.3125 53.185 70 44.2826 70 35C70 25.7174 66.3125 16.815 59.7487 10.2513C53.185 3.68749 44.2826 0 35 0C25.7174 0 16.815 3.68749 10.2513 10.2513C3.68749 16.815 0 25.7174 0 35C0 44.2826 3.68749 53.185 10.2513 59.7487C16.815 66.3125 25.7174 70 35 70ZM21.5556 21.8312C20.3102 23.7096 19.6875 25.5617 19.6875 27.3875C19.6875 28.2771 20.0812 29.1025 20.8687 29.8638C21.6562 30.625 22.6202 31.0042 23.7606 31.0012C25.7002 31.0012 27.0171 29.9133 27.7113 27.7375C28.4463 25.6579 29.3446 24.0829 30.4062 23.0125C31.4679 21.945 33.1217 21.4113 35.3675 21.4113C37.2867 21.4113 38.8544 21.9406 40.0706 22.9994C41.284 24.061 41.8906 25.3619 41.8906 26.9019C41.8959 27.6745 41.6902 28.4339 41.2956 29.0981C40.8903 29.7725 40.3958 30.3891 39.8256 30.9313C38.9057 31.7737 37.9603 32.5878 36.9906 33.3725C35.5031 34.6063 34.319 35.6708 33.4381 36.5662C32.5631 37.4646 31.8587 38.5044 31.325 39.6856C29.9163 45.1325 37.2313 45.57 38.92 41.6806C39.1242 41.3073 39.4348 40.8931 39.8519 40.4381C40.2719 39.986 40.829 39.461 41.5231 38.8631C43.2933 37.3889 45.0348 35.8807 46.7469 34.3394C47.7152 33.4469 48.5508 32.3823 49.2537 31.1456C49.9799 29.829 50.3451 28.3439 50.3125 26.8406C50.3125 24.764 49.6942 22.839 48.4575 21.0656C47.2238 19.2894 45.4738 17.8865 43.2075 16.8569C40.9412 15.8273 38.3279 15.3125 35.3675 15.3125C32.1825 15.3125 29.3956 15.9294 27.0069 17.1631C24.6181 18.3969 22.801 19.9558 21.5556 21.8312ZM30.9181 52.8062C30.9181 53.9666 31.3791 55.0794 32.1995 55.8998C33.02 56.7203 34.1328 57.1812 35.2931 57.1812C36.4534 57.1812 37.5662 56.7203 38.3867 55.8998C39.2072 55.0794 39.6681 53.9666 39.6681 52.8062C39.6681 51.6459 39.2072 50.5331 38.3867 49.7127C37.5662 48.8922 36.4534 48.4312 35.2931 48.4312C34.1328 48.4312 33.02 48.8922 32.1995 49.7127C31.3791 50.5331 30.9181 51.6459 30.9181 52.8062Z" fill="black"/>
</g>
<defs>
<clipPath id="clip0_82_9568">
<rect width="70" height="70" fill="white"/>
</clipPath>
</defs>
</svg>
