<svg width="24" height="24" viewBox="0 0 24 24" fill="none" xmlns="http://www.w3.org/2000/svg">
<g id="hugeicons:shopping-cart-check-01">
<g id="Group">
<path id="Vector" d="M19 6.5H19.394C20.495 6.5 21.045 6.5 21.332 6.895C21.619 7.29 21.5 7.883 21.261 9.07C20.433 13.18 19.751 16 15.263 16H8L5.379 3.515C5.27085 3.08232 5.02118 2.69821 4.66967 2.4237C4.31816 2.1492 3.88499 2.00007 3.439 2H2.5M6 6.5H7.5M10.5 7C10.5 7 11.5 7 12.5 9C12.5 9 15.677 4 18.5 3M8.88 16H8.469C7.105 16 6 17.151 6 18.571C5.99881 18.6262 6.00849 18.681 6.0285 18.7324C6.04851 18.7838 6.07846 18.8308 6.11662 18.8706C6.15479 18.9105 6.20043 18.9424 6.25094 18.9646C6.30145 18.9868 6.35584 18.9988 6.411 19H17.5" stroke="white" stroke-width="1.5" stroke-linecap="round" stroke-linejoin="round"/>
<path id="Vector_2" d="M10.5 22C11.3284 22 12 21.3284 12 20.5C12 19.6716 11.3284 19 10.5 19C9.67157 19 9 19.6716 9 20.5C9 21.3284 9.67157 22 10.5 22Z" stroke="white" stroke-width="1.5" stroke-linecap="round" stroke-linejoin="round"/>
<path id="Vector_3" d="M17.5 22C18.3284 22 19 21.3284 19 20.5C19 19.6716 18.3284 19 17.5 19C16.6716 19 16 19.6716 16 20.5C16 21.3284 16.6716 22 17.5 22Z" stroke="white" stroke-width="1.5" stroke-linecap="round" stroke-linejoin="round"/>
</g>
</g>
</svg>
