<svg width="25" height="24" viewBox="0 0 25 24" fill="none" xmlns="http://www.w3.org/2000/svg">
<g id="hugeicons:shopping-cart-check-01">
<g id="Group">
<path id="Vector" d="M19.0883 6.5H19.4823C20.5833 6.5 21.1333 6.5 21.4203 6.895C21.7073 7.29 21.5883 7.883 21.3493 9.07C20.5213 13.18 19.8393 16 15.3513 16H8.08826L5.46726 3.515C5.3591 3.08232 5.10943 2.69821 4.75793 2.4237C4.40642 2.1492 3.97325 2.00007 3.52726 2H2.58826M6.08826 6.5H7.58826M10.5883 7C10.5883 7 11.5883 7 12.5883 9C12.5883 9 15.7653 4 18.5883 3M8.96826 16H8.55726C7.19326 16 6.08826 17.151 6.08826 18.571C6.08706 18.6262 6.09675 18.681 6.11676 18.7324C6.13677 18.7838 6.16671 18.8308 6.20488 18.8706C6.24305 18.9105 6.28869 18.9424 6.3392 18.9646C6.38971 18.9868 6.4441 18.9988 6.49926 19H17.5883" stroke="#404040" stroke-width="1.5" stroke-linecap="round" stroke-linejoin="round"/>
<path id="Vector_2" d="M10.5883 22C11.4167 22 12.0883 21.3284 12.0883 20.5C12.0883 19.6716 11.4167 19 10.5883 19C9.75983 19 9.08826 19.6716 9.08826 20.5C9.08826 21.3284 9.75983 22 10.5883 22Z" stroke="#404040" stroke-width="1.5" stroke-linecap="round" stroke-linejoin="round"/>
<path id="Vector_3" d="M17.5883 22C18.4167 22 19.0883 21.3284 19.0883 20.5C19.0883 19.6716 18.4167 19 17.5883 19C16.7598 19 16.0883 19.6716 16.0883 20.5C16.0883 21.3284 16.7598 22 17.5883 22Z" stroke="#404040" stroke-width="1.5" stroke-linecap="round" stroke-linejoin="round"/>
</g>
</g>
</svg>
