<svg width="85" height="38" viewBox="0 0 85 38" fill="none" xmlns="http://www.w3.org/2000/svg">
<g id="logos:visaelectron" clip-path="url(#clip0_23_6722)">
<path id="Vector" d="M32.2732 0.486667L21.1456 27.1393H13.8861L8.41012 5.868C8.07812 4.561 7.78961 4.08 6.77934 3.52733C5.12798 2.62667 2.40094 1.78433 0.00390625 1.26033L0.16559 0.486667H11.8533C13.3406 0.486667 14.6799 1.481 15.0205 3.20267L17.9139 18.627L25.0572 0.486667H32.2732ZM42.0871 0.486667L36.4089 27.1393H29.5405L35.2194 0.486667H42.0871ZM60.7175 18.4373C60.7461 11.4043 51.0318 11.014 51.0952 7.87167C51.1184 6.91633 52.0248 5.89933 54.0088 5.63933C54.9915 5.51167 57.7066 5.41 60.7819 6.83267L61.9851 1.17733C60.3327 0.577333 58.2063 0 55.5613 0C48.7719 0 43.9961 3.62067 43.9579 8.80933C43.9134 12.6473 47.3692 14.7863 49.9681 16.0647C52.645 17.37 53.5427 18.209 53.5304 19.3757C53.5112 21.164 51.3923 21.9557 49.4226 21.985C45.9685 22.04 43.9662 21.0477 42.3689 20.3007L41.1223 26.1433C42.7292 26.8827 45.6906 27.525 48.7579 27.5577C55.9756 27.5577 60.6963 23.9783 60.7175 18.4373ZM78.6455 27.1397H84.9956L79.4479 0.486667H73.5891C72.2678 0.486667 71.1572 1.25667 70.6645 2.44033L60.3593 27.1393H67.5713L69.0019 23.158H77.8131L78.6455 27.1397ZM70.9796 17.6967L74.5957 7.68767L76.6731 17.6967H70.9796ZM50.8771 34.476H48.0863V37.0837H51.2078V37.8677H47.1461V30.6333H51.0477V31.4173H48.0863V33.703H50.8767L50.8771 34.476ZM52.6496 30.2473H53.5898V37.8673H52.6496V30.2473ZM55.9623 35.4417C55.9836 36.7193 56.7857 37.245 57.7365 37.245C58.4105 37.245 58.8271 37.127 59.1698 36.977L59.3404 37.6533C59.0091 37.8033 58.432 37.9857 57.6084 37.9857C56.0161 37.9857 55.0649 36.9233 55.0649 35.356C55.0649 33.7893 55.9836 32.5653 57.4912 32.5653C59.191 32.5653 59.6292 34.047 59.6292 35.002C59.6292 35.195 59.6183 35.3343 59.5967 35.442L55.9623 35.4417ZM58.7202 34.7657C58.7312 34.1757 58.4745 33.2417 57.4161 33.2417C56.454 33.2417 56.0476 34.111 55.9726 34.7657H58.7202ZM64.7473 37.685C64.5016 37.8033 63.9562 37.986 63.2616 37.986C61.7009 37.986 60.6853 36.9233 60.6853 35.3347C60.6853 33.7353 61.7753 32.5657 63.4645 32.5657C64.0203 32.5657 64.5119 32.7047 64.7686 32.8447L64.5554 33.5637C64.33 33.4457 63.9774 33.3163 63.4645 33.3163C62.2776 33.3163 61.6368 34.2073 61.6368 35.2813C61.6368 36.483 62.4064 37.2237 63.4326 37.2237C63.9671 37.2237 64.3197 37.095 64.587 36.977L64.7473 37.685ZM67.3861 31.4277V32.6727H68.7326V33.3913H67.3861V36.193C67.3861 36.8377 67.568 37.202 68.0916 37.202C68.3479 37.202 68.4979 37.181 68.637 37.1373L68.6799 37.8573C68.4979 37.9213 68.2094 37.9857 67.8459 37.9857C67.4073 37.9857 67.0544 37.8353 66.8303 37.589C66.5737 37.2987 66.4668 36.8377 66.4668 36.2257V33.3913H65.6646V32.6727H66.4668V31.7067L67.3861 31.4277ZM70.0464 34.2937C70.0464 33.6817 70.0351 33.156 70.0035 32.6727H70.8269L70.8701 33.7027H70.9013C71.137 33.0057 71.7137 32.5653 72.3441 32.5653C72.4407 32.5653 72.5158 32.5763 72.6014 32.5867V33.478C72.5051 33.456 72.4092 33.456 72.2801 33.456C71.618 33.456 71.1469 33.9497 71.0191 34.6587C70.997 34.8043 70.9862 34.9514 70.9869 35.0987V37.868H70.0464V34.2937ZM78.3832 35.227C78.3832 37.1483 77.0466 37.9857 75.8069 37.9857C74.4168 37.9857 73.3268 36.955 73.3268 35.3133C73.3268 33.585 74.4706 32.5657 75.8925 32.5657C77.3782 32.5657 78.3832 33.6487 78.3832 35.227ZM74.2886 35.2813C74.2886 36.419 74.9301 37.278 75.8494 37.278C76.7478 37.278 77.4207 36.4293 77.4207 35.2597C77.4207 34.3797 76.9825 33.2737 75.8706 33.2737C74.77 33.2737 74.2886 34.3047 74.2886 35.2813ZM79.8247 34.079C79.8247 33.532 79.8134 33.1023 79.7816 32.6733H80.6155L80.669 33.532H80.6902C80.9469 33.0487 81.5455 32.566 82.4007 32.566C83.1165 32.566 84.2287 32.9953 84.2287 34.7763V37.868H83.2881V34.8733C83.2881 34.0367 82.9781 33.3383 82.091 33.3383C81.4814 33.3383 81 33.7787 80.8297 34.3043C80.7865 34.4227 80.7653 34.5833 80.7653 34.7447V37.868H79.8247V34.079Z" fill="#1A1F71"/>
</g>
<defs>
<clipPath id="clip0_23_6722">
<rect width="85" height="38" fill="white"/>
</clipPath>
</defs>
</svg>
